<svg width="24" height="25" viewBox="0 0 24 25" fill="none" xmlns="http://www.w3.org/2000/svg">
<path d="M6.25 15.1786H12.5C13.9768 15.1786 15.1786 13.9768 15.1786 12.5V6.25C15.1786 4.77321 13.9768 3.57143 12.5 3.57143H6.25C4.77321 3.57143 3.57143 4.77321 3.57143 6.25V12.5C3.57143 13.9768 4.77321 15.1786 6.25 15.1786ZM6.25 13.3929C5.88214 13.3929 5.56607 13.1687 5.42946 12.85L7.16607 11.367L9.34018 13.3929H6.25089H6.25ZM13.3929 12.5C13.3929 12.9929 12.9929 13.3929 12.5 13.3929H11.958L11.2179 12.7036L13.3929 11.3991V12.5ZM5.35714 6.25C5.35714 5.75714 5.75714 5.35714 6.25 5.35714H12.5C12.9929 5.35714 13.3929 5.75714 13.3929 6.25V9.31607L9.85804 11.4366L8.40536 10.083C7.71161 9.38839 6.57679 9.3875 5.925 10.0411L5.35714 10.5366V6.25ZM9.82143 7.14286C9.82143 6.65 10.2214 6.25 10.7143 6.25C11.2071 6.25 11.6071 6.65 11.6071 7.14286C11.6071 7.63571 11.2071 8.03571 10.7143 8.03571C10.2214 8.03571 9.82143 7.63571 9.82143 7.14286ZM20.5357 0H2.67857C1.20179 0 0 1.20179 0 2.67857V22.3214C0 23.7982 1.20179 25 2.67857 25H20.5357C22.0125 25 23.2143 23.7982 23.2143 22.3214V2.67857C23.2143 1.20179 22.0125 0 20.5357 0ZM21.4286 22.3214C21.4286 22.8143 21.0286 23.2143 20.5357 23.2143H2.67857C2.18571 23.2143 1.78571 22.8143 1.78571 22.3214V2.67857C1.78571 2.18571 2.18571 1.78571 2.67857 1.78571H20.5357C21.0286 1.78571 21.4286 2.18571 21.4286 2.67857V22.3214ZM19.6429 6.25C19.6429 6.74375 19.2437 7.14286 18.75 7.14286H16.9643C16.4705 7.14286 16.0714 6.74375 16.0714 6.25C16.0714 5.75625 16.4705 5.35714 16.9643 5.35714H18.75C19.2437 5.35714 19.6429 5.75625 19.6429 6.25ZM19.6429 9.82143C19.6429 10.3152 19.2437 10.7143 18.75 10.7143H16.9643C16.4705 10.7143 16.0714 10.3152 16.0714 9.82143C16.0714 9.32768 16.4705 8.92857 16.9643 8.92857H18.75C19.2437 8.92857 19.6429 9.32768 19.6429 9.82143ZM19.6429 13.3929C19.6429 13.8866 19.2437 14.2857 18.75 14.2857H16.9643C16.4705 14.2857 16.0714 13.8866 16.0714 13.3929C16.0714 12.8991 16.4705 12.5 16.9643 12.5H18.75C19.2437 12.5 19.6429 12.8991 19.6429 13.3929ZM19.6429 16.9643C19.6429 17.458 19.2437 17.8571 18.75 17.8571H4.46429C3.97054 17.8571 3.57143 17.458 3.57143 16.9643C3.57143 16.4705 3.97054 16.0714 4.46429 16.0714H18.75C19.2437 16.0714 19.6429 16.4705 19.6429 16.9643ZM19.6429 20.5357C19.6429 21.0295 19.2437 21.4286 18.75 21.4286H4.46429C3.97054 21.4286 3.57143 21.0295 3.57143 20.5357C3.57143 20.042 3.97054 19.6429 4.46429 19.6429H18.75C19.2437 19.6429 19.6429 20.042 19.6429 20.5357Z" fill="#939393"/>
</svg>
