<svg width="24" height="25" viewBox="0 0 24 25" fill="none" xmlns="http://www.w3.org/2000/svg">
<path d="M5.45911 11.8281H8.18867C9.19223 11.8281 10.0084 11.0119 10.0084 10.0084V6.36896C10.0084 5.3654 9.19223 4.54926 8.18867 4.54926H5.45911C4.45554 4.54926 3.63941 5.3654 3.63941 6.36896V10.0084C3.63941 11.0119 4.45554 11.8281 5.45911 11.8281ZM5.45911 6.36896H8.18867V10.0084H5.45911V6.36896ZM16.3773 6.36896C16.3773 6.8712 15.9706 7.27882 15.4675 7.27882H12.7379C12.2348 7.27882 11.8281 6.8712 11.8281 6.36896C11.8281 5.86672 12.2348 5.45911 12.7379 5.45911H15.4675C15.9706 5.45911 16.3773 5.86672 16.3773 6.36896ZM16.3773 10.0084C16.3773 10.5106 15.9706 10.9182 15.4675 10.9182H12.7379C12.2348 10.9182 11.8281 10.5106 11.8281 10.0084C11.8281 9.50613 12.2348 9.09852 12.7379 9.09852H15.4675C15.9706 9.09852 16.3773 9.50613 16.3773 10.0084ZM14.5576 14.5576C14.5576 15.0599 14.1509 15.4675 13.6478 15.4675H4.54926C4.04611 15.4675 3.63941 15.0599 3.63941 14.5576C3.63941 14.0554 4.04611 13.6478 4.54926 13.6478H13.6478C14.1509 13.6478 14.5576 14.0554 14.5576 14.5576ZM12.7379 18.197C12.7379 18.6993 12.3312 19.1069 11.8281 19.1069H4.54926C4.04611 19.1069 3.63941 18.6993 3.63941 18.197C3.63941 17.6948 4.04611 17.2872 4.54926 17.2872H11.8281C12.3312 17.2872 12.7379 17.6948 12.7379 18.197ZM23.5779 11.9282C23.436 11.4632 23.1202 11.082 22.6908 10.8545L21.084 10.002C20.7519 9.82549 20.3825 9.75998 20.0158 9.80456V2.72956C20.0158 1.22466 18.7912 0 17.2863 0H2.72956C1.22466 0 0 1.22466 0 2.72956V20.9266C0 22.4315 1.22466 23.6561 2.72956 23.6561H13.5522L13.767 24.3567C13.8379 24.5869 13.9972 24.7807 14.2101 24.8935C14.3429 24.9636 14.4894 25 14.6368 25C14.7269 25 14.816 24.9864 14.9034 24.96L16.643 24.4268C17.34 24.2139 17.9123 23.7417 18.2534 23.0966L23.446 13.3148C23.6734 12.8853 23.7207 12.3931 23.5779 11.9282ZM13.4331 20.5372C13.2174 20.9439 13.1219 21.3888 13.1255 21.8364H2.72956C2.22732 21.8364 1.8197 21.4279 1.8197 20.9266V2.72956C1.8197 2.22823 2.22732 1.8197 2.72956 1.8197H17.2872C17.7894 1.8197 18.197 2.22823 18.197 2.72956V11.5588L13.4331 20.5372ZM16.6476 22.2432C16.5329 22.4579 16.3428 22.6162 16.1107 22.6872L15.2409 22.9537L14.9743 22.0848C14.9034 21.8519 14.9261 21.6053 15.0408 21.3906L20.2315 11.6088L21.8401 12.4622L16.6476 22.2432Z" fill="black"/>
</svg>
